<svg height="510" viewBox="0 0 823 510" width="823" xmlns="http://www.w3.org/2000/svg"><path d="m270.221 334.068 66.614-144 66.151 144z"/><path d="m270.221 334.068 66.614-144 66.151 144z" fill="none" stroke="#000"/><path d="m385.615 190.068 66.614 144 66.151-144z"/><g fill="none" stroke="#000"><path d="m385.615 190.068 66.614 144 66.151-144z"/><path d="m254.385 190.068h283.91" stroke-width="5"/><path d="m254.385 334.068h283.91" stroke-width="5"/><path d="m397.858 193.238v-145.67" stroke-width="5"/><path d="m397.858 334.068v144" stroke-width="5"/><path d="m398.34 47.568c-3.628 0-6.569-2.94-6.569-6.568s2.941-6.568 6.569-6.568c3.627 0 6.568 2.94 6.568 6.568s-2.941 6.568-6.568 6.568z" stroke-width="5"/><path d="m398.34 491.205c-3.628 0-6.569-2.941-6.569-6.568 0-3.628 2.941-6.569 6.569-6.569 3.627 0 6.568 2.941 6.568 6.569 0 3.627-2.941 6.568-6.568 6.568z" stroke-width="5"/></g><text transform="translate(323.897 40.5)"><tspan fill="#656565" font-family="Avenir-Medium" font-size="29" x="-55.897" y="-11.5">Anode 2</tspan> <tspan fill="#656565" font-family="Avenir-Medium" font-size="29" x="-37.584" y="28.5">(MT2)</tspan></text><text transform="translate(481.897 469.5)"><tspan fill="#656565" font-family="Avenir-Medium" font-size="29" x="-55.897" y="-11.5">Anode 1</tspan> <tspan fill="#656565" font-family="Avenir-Medium" font-size="29" x="-37.584" y="28.5">(MT1)</tspan></text><path d="m779 233.432h44v28h-44z" fill="#fff"/><path d="m0 233.432h44v28h-44z" fill="#fff"/></svg>