<svg height="744.348" viewBox="0 0 751.856 744.348" width="751.856" xmlns="http://www.w3.org/2000/svg"><g stroke-width="4"><path d="m369.6 14.848v721" fill="none" stroke="#656565"/><path d="m9.5 374.723h719.856" fill="none" stroke="#656565"/><path d="m369.428 375.703c0-35 283-14 287-27" fill="none" stroke="#c81919"/><path d="m369.428 375.703c0 35-283 14-287 27" fill="none" stroke="#c81919"/><path d="m656.428 348.703c5.187-9.634 4.521-29.032 0-33.032" fill="none" stroke="#c81919"/><path d="m82.428 402.703c-5.188 9.634-4.521 29.033 0 33.033" fill="none" stroke="#c81919"/><path d="m441.6 41.686c1.164 261.314 201.492 255.655 214.828 273.985" fill="none" stroke="#c81919"/><path d="m297.256 709.72c-1.164-261.314-201.492-255.655-214.828-273.984" fill="none" stroke="#c81919"/></g><text transform="translate(724.804 351)"><tspan fill="#656565" font-family="Avenir-Medium" font-size="36" x="-23.328" y="9">+V</tspan></text><text transform="translate(402.173 27)"><tspan fill="#656565" font-family="Avenir-Medium" font-size="36" x="-16.992" y="9">+I</tspan></text><text transform="translate(402.173 708.348)"><tspan fill="#656565" font-family="Avenir-Medium" font-size="36" x="-10.692" y="9">-I</tspan></text><text transform="translate(36.852 348.75)"><tspan fill="#656565" font-family="Avenir-Medium" font-size="36" x="-17.028" y="6.75">-V</tspan></text><text transform="translate(668.489 418.719)"><tspan fill="#656565" font-family="Avenir-Medium" font-size="36" x="-25.96" y="8">V</tspan> <tspan fill="#656565" font-family="Avenir-Medium" font-size="20" x="-3.28" y="8">BO</tspan></text><text transform="translate(458.489 418.719)"><tspan fill="#656565" font-family="Avenir-Medium" font-size="36" x="-17.08" y="8">V</tspan> <tspan fill="#656565" font-family="Avenir-Medium" font-size="20" x="5.6" y="8">F</tspan></text><text transform="translate(333.65 101.719)"><tspan fill="#656565" font-family="Avenir-Medium" font-size="36" x="-10.744" y="8">I</tspan> <tspan fill="#656565" font-family="Avenir-Medium" font-size="20" x="-.736" y="8">F</tspan></text><text transform="translate(333.65 321.171)"><tspan fill="#656565" font-family="Avenir-Medium" font-size="36" x="-22.548" y="11">I</tspan> <tspan fill="#656565" font-family="Avenir-Medium" font-size="24" x="-12.54" y="11">BO</tspan></text><path d="m656.428 315.671h-287" fill="none" stroke="#656565" stroke-dasharray="9 6" stroke-width="3"/><path d="m445.6 95.671h-76.172" fill="none" stroke="#656565" stroke-dasharray="9 6" stroke-width="3"/><path d="m445.6 107v268.703" fill="none" stroke="#656565" stroke-dasharray="9 6" stroke-width="3"/><path d="m660.073 320v55.703" fill="none" stroke="#656565" stroke-dasharray="9 6" stroke-width="3"/></svg>